<svg xmlns="http://www.w3.org/2000/svg" width="50" height="50" viewBox="0 0 50 50">
    <defs>
        <linearGradient id="b" x1="50%" x2="50%" y1="0%" y2="90.646%">
            <stop offset="0%" stop-color="#55BCFF"/>
            <stop offset="100%" stop-color="#1B98EA"/>
        </linearGradient>
        <linearGradient id="a" x1="50%" x2="52.129%" y1="34.103%" y2="60.949%">
            <stop offset="0%" stop-color="#8AD1FF"/>
            <stop offset="100%" stop-color="#1B98EA" stop-opacity="0"/>
        </linearGradient>
        <linearGradient id="c" x1="11.591%" x2="11.591%" y1="0%" y2="100%">
            <stop offset="0%" stop-color="#0E56FE"/>
            <stop offset="100%" stop-color="#0018A8"/>
        </linearGradient>
        <linearGradient id="d" x1="50.002%" x2="28.547%" y1="10.021%" y2="74.379%">
            <stop offset="0%" stop-color="#1B98EA" stop-opacity=".7"/>
            <stop offset="100%" stop-color="#1B98EA" stop-opacity="0"/>
        </linearGradient>
        <linearGradient id="e" x1="-6635.484%" y1="48%" y2="48%">
            <stop offset="0%" stop-color="#99C1FF" stop-opacity="0"/>
            <stop offset="1%" stop-color="#93BEFF" stop-opacity=".04"/>
            <stop offset="5%" stop-color="#78ADFF" stop-opacity=".22"/>
            <stop offset="9%" stop-color="#5E9EFF" stop-opacity=".38"/>
            <stop offset="14%" stop-color="#4790FF" stop-opacity=".53"/>
            <stop offset="20%" stop-color="#3484FF" stop-opacity=".66"/>
            <stop offset="25%" stop-color="#247AFF" stop-opacity=".77"/>
            <stop offset="32%" stop-color="#1672FF" stop-opacity=".85"/>
            <stop offset="40%" stop-color="#0C6CFF" stop-opacity=".92"/>
            <stop offset="49%" stop-color="#0568FF" stop-opacity=".97"/>
            <stop offset="63%" stop-color="#0166FF" stop-opacity=".99"/>
            <stop offset="100%" stop-color="#0065FF"/>
        </linearGradient>
        <linearGradient id="f" x1="100%" x2="0%" y1="50%" y2="50%">
            <stop offset="0%" stop-color="#0018A8"/>
            <stop offset="100%" stop-color="#1B98EA" stop-opacity="0"/>
        </linearGradient>
    </defs>
    <g fill="none" fill-rule="evenodd">
        <path fill="url(#b)" stroke="url(#a)" stroke-width=".5" d="M22.25 31.25v7.5h18v3.005a.75.75 0 0 0 1.252.557l7.505-6.755a.75.75 0 0 0 0-1.114l-7.505-6.755a.75.75 0 0 0-1.252.557v3.005h-18z"/>
        <path fill="url(#c)" d="M22 39v-8a8 8 0 1 0-8-8H6c0-.67.041-1.33.121-1.978C7.095 13.12 13.833 7 22 7c8.837 0 16 7.163 16 16s-7.163 16-16 16zm-5.245-16a1 1 0 0 1 .743 1.669l-6.755 7.505a1 1 0 0 1-1.486 0L2.502 24.67A1 1 0 0 1 3.245 23h13.51z"/>
        <path stroke="url(#d)" stroke-width=".5" d="M22.25 31.246v7.502c8.583-.134 15.5-7.133 15.5-15.748 0-8.698-7.052-15.75-15.75-15.75-7.974 0-14.664 5.958-15.63 13.803A15.91 15.91 0 0 0 6.25 23v.25H3.245a.75.75 0 0 0-.557 1.252l6.755 7.505a.75.75 0 0 0 1.114 0l6.755-7.505a.75.75 0 0 0-.557-1.252H13.75V23a8.25 8.25 0 1 1 8.5 8.246z"/>
        <path fill="url(#e)" fill-rule="nonzero" d="M22.055 38.9h-.312.312z"/>
        <path fill="url(#f)" d="M10 31h12v8H10z"/>
    </g>
</svg>
