<svg xmlns="http://www.w3.org/2000/svg" width="50" height="50" viewBox="0 0 50 50">
    <defs>
        <linearGradient id="a" x1="11.591%" x2="11.591%" y1="0%" y2="100%">
            <stop offset="0%" stop-color="#0E56FE"/>
            <stop offset="100%" stop-color="#0018A8"/>
        </linearGradient>
        <linearGradient id="b" x1="50.002%" x2="50.002%" y1=".089%" y2="100%">
            <stop offset="0%" stop-color="#1B98EA" stop-opacity=".7"/>
            <stop offset="100%" stop-color="#1B98EA" stop-opacity="0"/>
        </linearGradient>
        <linearGradient id="c" x1="50.002%" x2="50.002%" y1="50%" y2="100%">
            <stop offset="0%" stop-color="#F7FAFD" stop-opacity=".5"/>
            <stop offset="100%" stop-color="#1B98EA" stop-opacity="0"/>
        </linearGradient>
    </defs>
    <g fill="none" fill-rule="evenodd">
        <path fill="url(#a)" d="M27.16 12.182l.001.004A2.264 2.264 0 0 0 29.26 13.6c.961 0 1.74.779 1.74 1.74v2.32a1.74 1.74 0 0 1-1.74 1.74c-.923 0-1.756.556-2.11 1.41l-.036.086a2.423 2.423 0 0 0 .525 2.642l.058.058c.68.68.68 1.781 0 2.46l-1.64 1.641a1.74 1.74 0 0 1-2.461 0l-.058-.058a2.423 2.423 0 0 0-2.642-.525l-.087.036a2.284 2.284 0 0 0-1.409 2.11A1.74 1.74 0 0 1 17.66 31h-2.32a1.74 1.74 0 0 1-1.74-1.74c0-.922-.56-1.752-1.414-2.099l-.004-.001a2.309 2.309 0 0 0-2.5.507l-.03.03a1.74 1.74 0 0 1-2.461 0l-1.64-1.64a1.74 1.74 0 0 1 0-2.461 2.2 2.2 0 0 0 .47-2.414l-.16-.377A2.303 2.303 0 0 0 3.74 19.4 1.74 1.74 0 0 1 2 17.66v-2.32c0-.961.779-1.74 1.74-1.74.923 0 1.756-.556 2.11-1.41l.138-.334a2.022 2.022 0 0 0-.438-2.204 1.74 1.74 0 0 1 0-2.461l1.64-1.64a1.74 1.74 0 0 1 2.462 0 2.022 2.022 0 0 0 2.204.437l.335-.138A2.284 2.284 0 0 0 13.6 3.74c0-.961.779-1.74 1.74-1.74h2.32c.961 0 1.74.779 1.74 1.74 0 .925.553 1.76 1.405 2.12l.377.16a2.2 2.2 0 0 0 2.414-.47 1.74 1.74 0 0 1 2.46 0l1.641 1.64c.68.68.68 1.782 0 2.462l-.03.03a2.309 2.309 0 0 0-.507 2.5z" transform="rotate(15 16.5 16.5)"/>
        <path fill="url(#a)" d="M44.822 32.426l.001.004c.287.707.974 1.17 1.737 1.17.795 0 1.44.645 1.44 1.44v1.92a1.44 1.44 0 0 1-1.44 1.44 1.89 1.89 0 0 0-1.746 1.166l-.03.072c-.31.75-.139 1.613.435 2.187l.047.047a1.44 1.44 0 0 1 0 2.037l-1.357 1.357a1.44 1.44 0 0 1-2.037 0l-.047-.047a2.006 2.006 0 0 0-2.187-.435l-.072.03A1.89 1.89 0 0 0 38.4 46.56 1.44 1.44 0 0 1 36.96 48h-1.92a1.44 1.44 0 0 1-1.44-1.44c0-.763-.463-1.45-1.17-1.737l-.004-.001a1.91 1.91 0 0 0-2.069.42l-.025.024a1.44 1.44 0 0 1-2.036 0l-1.358-1.357a1.44 1.44 0 0 1 0-2.037 1.82 1.82 0 0 0 .39-1.997l-.133-.313A1.906 1.906 0 0 0 25.44 38.4 1.44 1.44 0 0 1 24 36.96v-1.92c0-.795.645-1.44 1.44-1.44a1.89 1.89 0 0 0 1.746-1.166l.115-.277a1.674 1.674 0 0 0-.363-1.825 1.44 1.44 0 0 1 0-2.036l1.358-1.358a1.44 1.44 0 0 1 2.036 0 1.674 1.674 0 0 0 1.825.363l.277-.115A1.89 1.89 0 0 0 33.6 25.44c0-.795.645-1.44 1.44-1.44h1.92c.795 0 1.44.645 1.44 1.44 0 .765.458 1.456 1.162 1.755l.313.132a1.82 1.82 0 0 0 1.997-.389 1.44 1.44 0 0 1 2.037 0l1.357 1.358a1.44 1.44 0 0 1 0 2.036l-.025.025a1.91 1.91 0 0 0-.42 2.07z" transform="rotate(15 36 36)"/>
        <path stroke="url(#b)" stroke-width=".5" d="M26.928 12.276a2.559 2.559 0 0 1 .562-2.771l.03-.03a1.49 1.49 0 0 0 0-2.107l-1.64-1.64a1.49 1.49 0 0 0-2.107 0 2.45 2.45 0 0 1-2.689.523l-.377-.16A2.553 2.553 0 0 1 19.15 3.74a1.49 1.49 0 0 0-1.49-1.49h-2.32a1.49 1.49 0 0 0-1.49 1.49 2.534 2.534 0 0 1-1.563 2.34l-.335.14a2.272 2.272 0 0 1-2.477-.493 1.49 1.49 0 0 0-2.107 0l-1.64 1.64a1.49 1.49 0 0 0 0 2.108c.65.65.843 1.627.491 2.477l-.138.335A2.534 2.534 0 0 1 3.74 13.85a1.49 1.49 0 0 0-1.49 1.49v2.32c0 .823.667 1.49 1.49 1.49 1.025 0 1.95.613 2.35 1.557l.16.377a2.45 2.45 0 0 1-.523 2.689 1.49 1.49 0 0 0 0 2.107l1.64 1.64a1.49 1.49 0 0 0 2.108 0l.03-.03a2.559 2.559 0 0 1 2.77-.562l.005.002a2.514 2.514 0 0 1 1.57 2.33c0 .823.667 1.49 1.49 1.49h2.32a1.49 1.49 0 0 0 1.49-1.49c0-1.025.617-1.948 1.563-2.34l.088-.037c.999-.414 2.15-.185 2.914.58l.058.057a1.49 1.49 0 0 0 2.107 0l1.64-1.64a1.49 1.49 0 0 0 0-2.107l-.057-.058a2.673 2.673 0 0 1-.58-2.914l.036-.088a2.534 2.534 0 0 1 2.341-1.563 1.49 1.49 0 0 0 1.49-1.49v-2.32a1.49 1.49 0 0 0-1.49-1.49 2.514 2.514 0 0 1-2.33-1.57l-.002-.004z" transform="rotate(15 16.5 16.5)"/>
        <path stroke="url(#b)" stroke-width=".5" d="M44.59 32.52a2.16 2.16 0 0 1 .475-2.34l.025-.024a1.19 1.19 0 0 0 0-1.683l-1.358-1.358a1.19 1.19 0 0 0-1.683 0 2.07 2.07 0 0 1-2.272.442l-.312-.132a2.156 2.156 0 0 1-1.315-1.985 1.19 1.19 0 0 0-1.19-1.19h-1.92a1.19 1.19 0 0 0-1.19 1.19 2.14 2.14 0 0 1-1.32 1.977l-.278.115a1.924 1.924 0 0 1-2.096-.417 1.19 1.19 0 0 0-1.683 0l-1.358 1.358a1.19 1.19 0 0 0 0 1.683c.55.55.715 1.377.417 2.096l-.115.278a2.14 2.14 0 0 1-1.977 1.32 1.19 1.19 0 0 0-1.19 1.19v1.92c0 .657.533 1.19 1.19 1.19.866 0 1.647.518 1.985 1.315l.132.312a2.07 2.07 0 0 1-.442 2.272 1.19 1.19 0 0 0 0 1.683l1.358 1.358a1.19 1.19 0 0 0 1.683 0l.025-.025a2.16 2.16 0 0 1 2.34-.475l.003.002a2.124 2.124 0 0 1 1.326 1.968c0 .657.533 1.19 1.19 1.19h1.92a1.19 1.19 0 0 0 1.19-1.19 2.14 2.14 0 0 1 1.32-1.977l.073-.03a2.256 2.256 0 0 1 2.458.489l.048.048a1.19 1.19 0 0 0 1.683 0l1.358-1.358a1.19 1.19 0 0 0 0-1.683l-.048-.048a2.256 2.256 0 0 1-.489-2.458l.03-.073a2.14 2.14 0 0 1 1.977-1.32 1.19 1.19 0 0 0 1.19-1.19v-1.92a1.19 1.19 0 0 0-1.19-1.19 2.124 2.124 0 0 1-1.968-1.326l-.002-.004z" transform="rotate(15 36 36)"/>
        <circle cx="16.5" cy="16.5" r="5.5" stroke="url(#c)" transform="rotate(15 16.5 16.5)"/>
        <circle cx="36" cy="36" r="4" stroke="url(#c)" transform="rotate(15 36 36)"/>
    </g>
</svg>
