<svg xmlns="http://www.w3.org/2000/svg" width="20" height="20" viewBox="0 0 20 20">
    <path fill="#1B98EA" fill-rule="nonzero" d="M14.732 3H15a3 3 0 0 1 3 2.998 3 3 0 0 1-3 2.999h-.1a5.005 5.005 0 0 1-3.9 3.897v3.097h2a1 1 0 0 1 0 2H7a1 1 0 1 1 0-2h2v-3.097a5.005 5.005 0 0 1-3.9-3.897H5a3 3 0 0 1-3-2.999 3 3 0 0 1 3-2.999h.268A2 2 0 0 1 7 2h6a2 2 0 0 1 1.732 1zM15 5v1.997a1 1 0 0 0 1-.999 1 1 0 0 0-1-.999zM5 5a1 1 0 0 0-1 .998 1 1 0 0 0 1 .999V4.999zm2 2.997a2.999 2.999 0 0 0 3 2.997c1.657 0 3-1.342 3-2.997V4H7v3.997z"/>
</svg>
