<?xml version="1.0" encoding="utf-8"?>
<!-- Generator: Adobe Illustrator 22.1.0, SVG Export Plug-In . SVG Version: 6.00 Build 0)  -->
<svg version="1.1" id="Layer_1" xmlns="http://www.w3.org/2000/svg" xmlns:xlink="http://www.w3.org/1999/xlink" x="0px" y="0px"
	 viewBox="0 0 20 20" style="enable-background:new 0 0 20 20;" xml:space="preserve">
<style type="text/css">
	.st0{fill:#0142DB;}
</style>
<path class="st0" d="M7,14c-0.6,0-1-0.4-1-1s0.4-1,1-1h3c0.6,0,1,0.4,1,1s-0.4,1-1,1H7z M12,7H5v9h7V7z M12,18H5c-1.1,0-2-0.9-2-2V7
	c0-1.1,0.9-2,2-2h7c1.1,0,2,0.9,2,2v9C14,17.1,13.1,18,12,18z M7,11c-0.6,0-1-0.4-1-1s0.4-1,1-1h3c0.6,0,1,0.4,1,1s-0.4,1-1,1H7z
	 M15,4H7C6.4,4,6,3.6,6,3s0.4-1,1-1h8c1.1,0,2,0.9,2,2v10c0,0.6-0.4,1-1,1c-0.6,0-1-0.4-1-1V4L15,4z"/>
</svg>
