<?xml version="1.0" encoding="utf-8"?>
<!-- Generator: Adobe Illustrator 22.1.0, SVG Export Plug-In . SVG Version: 6.00 Build 0)  -->
<svg version="1.1" id="Layer_1" xmlns="http://www.w3.org/2000/svg" xmlns:xlink="http://www.w3.org/1999/xlink" x="0px" y="0px"
	 viewBox="0 0 20 20" style="enable-background:new 0 0 20 20;" xml:space="preserve">
<style type="text/css">
	.st0{fill:#0142DB;}
</style>
<path class="st0" d="M13.4,7.8c-0.4-0.3-0.5-1-0.2-1.4c0.3-0.4,1-0.5,1.4-0.2c0,0,0,0,0,0l4,3c0.4,0.3,0.5,1,0.2,1.4
	c-0.1,0.1-0.1,0.1-0.2,0.2l-4,3c-0.4,0.3-1.1,0.2-1.4-0.2c-0.3-0.4-0.2-1.1,0.2-1.4l0,0l2.9-2.2L13.4,7.8z M3.7,10l2.9,2.2
	c0.4,0.3,0.5,1,0.2,1.4c-0.3,0.4-1,0.5-1.4,0.2l-4-3c-0.4-0.3-0.5-1-0.2-1.4c0.1-0.1,0.1-0.1,0.2-0.2l4-3C5.8,5.9,6.5,6,6.8,6.4
	C7.1,6.8,7,7.5,6.6,7.8L3.7,10z M10,15.2c-0.1,0.5-0.6,0.9-1.2,0.8c-0.5-0.1-0.9-0.6-0.8-1.2l2-10c0.1-0.5,0.6-0.9,1.2-0.8
	c0.5,0.1,0.9,0.6,0.8,1.2C12,5.2,10,15.2,10,15.2z"/>
</svg>
