<?xml version="1.0" encoding="utf-8"?>
<!-- Generator: Adobe Illustrator 22.1.0, SVG Export Plug-In . SVG Version: 6.00 Build 0)  -->
<svg version="1.1" id="Layer_1" xmlns="http://www.w3.org/2000/svg" xmlns:xlink="http://www.w3.org/1999/xlink" x="0px" y="0px"
	 viewBox="0 0 20 20" style="enable-background:new 0 0 20 20;" xml:space="preserve">
<style type="text/css">
	.st0{fill:#E22605;}
</style>
<path class="st0" d="M6.5,5.1c0.1,0,0.1,0.1,0.2,0.2l8,8c0.1,0.1,0.1,0.1,0.2,0.2c1.9-2.7,1.3-6.4-1.4-8.4C11.4,3.6,8.6,3.6,6.5,5.1
	z M5.1,6.5c-1.9,2.7-1.3,6.4,1.4,8.4c2.1,1.5,4.9,1.5,7,0c-0.1,0-0.1-0.1-0.2-0.2l-8-8C5.2,6.6,5.2,6.6,5.1,6.5z M18,10
	c0,4.4-3.6,8-8,8s-8-3.6-8-8s3.6-8,8-8S18,5.6,18,10z"/>
</svg>
