<?xml version="1.0" encoding="utf-8"?>
<!-- Generator: Adobe Illustrator 22.1.0, SVG Export Plug-In . SVG Version: 6.00 Build 0)  -->
<svg version="1.1" id="Layer_1" xmlns="http://www.w3.org/2000/svg" xmlns:xlink="http://www.w3.org/1999/xlink" x="0px" y="0px"
	 viewBox="0 0 20 20" style="enable-background:new 0 0 20 20;" xml:space="preserve">
<style type="text/css">
	.st0{fill:#0142DB;}
</style>
<path class="st0" d="M18,10c0,4.4-3.6,8-8,8c-4.4,0-8-3.6-8-8c0-4.4,3.6-8,8-8C14.4,2,18,5.6,18,10z M16,10c0-3.3-2.7-6-6-6
	c-3.3,0-6,2.7-6,6c0,3.3,2.7,6,6,6C13.3,16,16,13.3,16,10z M6.1,11.4C5.8,11,6,10.3,6.5,10.1C7,9.8,7.6,10,7.9,10.5c0,0,0,0,0,0
	C8,10.7,8.2,11,8.5,11.3c0.5,0.4,1,0.7,1.5,0.7c0.6,0,1.1-0.3,1.5-0.7c0.3-0.3,0.5-0.6,0.6-0.7c0.2-0.5,0.8-0.7,1.3-0.5
	c0.5,0.2,0.7,0.8,0.5,1.3c0,0,0,0,0,0c-0.2,0.3-0.5,0.8-0.9,1.3c-0.8,0.8-1.8,1.3-3,1.3c-1.2,0-2.2-0.5-3-1.3
	C6.7,12.3,6.4,11.9,6.1,11.4L6.1,11.4z M9,8c0,0.6-0.4,1-1,1S7,8.5,7,8s0.4-1,1-1C8.6,7,9,7.4,9,8L9,8z M13,8c0,0.6-0.4,1-1,1
	c-0.6,0-1-0.4-1-1s0.4-1,1-1C12.6,7,13,7.4,13,8L13,8z"/>
</svg>
