<?xml version="1.0" encoding="UTF-8"?>
<svg width="240px" height="48px" viewBox="0 0 240 48" version="1.1" xmlns="http://www.w3.org/2000/svg" xmlns:xlink="http://www.w3.org/1999/xlink">
    <!-- Generator: Sketch 54.1 (76490) - https://sketchapp.com -->
    <title>Logo/horizontal</title>
    <desc>Created with Sketch.</desc>
    <g id="Logo/horizontal" stroke="none" stroke-width="1" fill="none" fill-rule="evenodd">
        <g id="Group" transform="translate(4.000000, 5.000000)" fill-rule="nonzero">
            <path d="M144.002518,28.8192617 C144.858201,28.8585264 145.715371,28.8518812 146.570344,28.7993545 L146.570344,33.5188832 C142.892956,33.9212399 140.300278,33.5849557 138.792311,32.5100307 C137.284033,31.4346307 136.529895,29.5116217 136.529895,26.7410037 L136.529895,11.1842787 L141.885174,8.09170575 L141.885174,12.8741767 L146.570325,12.8741767 L146.570325,17.8760265 L140.079439,17.8767817 L141.885155,18.919554 L141.885155,26.7410037 C141.835292,27.3061829 142.032164,27.8653151 142.425037,28.2743037 C142.873794,28.6299731 143.430127,28.8221643 144.002518,28.8192617 Z M114.139719,30.5967117 C109.757971,34.7122502 102.935766,34.7122502 98.5540173,30.5967117 C96.5232429,28.6050098 95.3788557,25.8789374 95.3788557,23.0330825 C95.3788557,20.1872276 96.5232429,17.4611552 98.5540173,15.4694532 C102.936354,11.3554027 109.757383,11.3554027 114.139719,15.4694532 C116.18298,17.4543982 117.336072,20.1829974 117.336072,23.0330825 C117.336072,25.8831676 116.18298,28.6117668 114.139719,30.5967118 Z M102.331607,27.027633 C103.396609,28.0765189 104.843394,28.6444963 106.33681,28.5999922 C107.835971,28.6414532 109.288174,28.074349 110.363207,27.027633 C112.521632,24.8032357 112.521632,21.2640455 110.363207,19.0396482 C109.288174,17.9929322 107.835971,17.4258281 106.33681,17.467289 C104.843394,17.4227849 103.396609,17.9907623 102.331607,19.0396483 C100.199966,21.2748548 100.199966,24.7924265 102.331607,27.027633 Z M160.479106,4.33128275 C164.250433,4.23863387 167.876002,5.79026294 170.414686,8.58339725 C173.043146,11.3982295 174.462242,15.1336387 174.366456,18.9854222 C174.461633,22.838111 173.042682,26.5743508 170.414686,29.390834 C167.874678,32.1817128 164.249665,33.7318457 160.479106,33.6395 L149.062865,33.6395 L149.062865,4.33128275 L160.479106,4.33128275 Z M160.479106,29.9563975 C163.262988,30.0411962 165.942299,28.8916021 167.800597,26.8150135 C169.696496,24.723028 170.643877,22.1131579 170.642741,18.9854033 C170.642741,15.8610528 169.69536,13.2511811 167.800597,11.1557883 C165.941896,9.08014087 163.262518,7.93176418 160.479106,8.01781 L152.949979,8.01781 L152.949979,29.9563975 L160.479106,29.9563975 Z M179.773257,16.3209097 C180.928586,13.8174032 183.025902,12.56565 186.065206,12.56565 L186.065206,16.2420597 C184.466341,16.1220775 182.881255,16.6114544 181.6277,17.612088 C180.390319,18.6108547 179.772175,20.2130534 179.773266,22.4186842 L179.773266,33.1160785 L176.264614,33.1160785 L176.264614,12.930336 L179.773266,12.930336 L179.773257,16.3209097 Z M203.890726,12.930336 L207.399379,12.930336 L207.399379,33.1160785 L203.890726,33.1160785 L203.890726,29.6433535 C202.144606,32.307847 199.604197,33.6406416 196.2695,33.6417372 C193.534937,33.6788118 190.912147,32.5570528 189.048702,30.553425 C185.070695,26.3228436 185.070695,19.7235424 189.048702,15.492961 C190.912147,13.4893332 193.534937,12.3675742 196.2695,12.4046487 C199.600916,12.4046487 202.141325,13.7374433 203.890726,16.4030325 L203.890726,12.930336 Z M196.712594,30.2511778 C198.634841,30.3001835 200.490867,29.5468013 201.836084,28.1714947 C204.575606,25.2870204 204.575606,20.7593941 201.836084,17.8749197 C198.998708,15.1019679 194.469156,15.1019679 191.63178,17.8749197 C188.887872,20.7576387 188.887872,25.2887758 191.63178,28.1714947 C192.962691,29.5419043 194.803729,30.2954794 196.712594,30.2511777 Z M221.699922,7.722911 C218.151881,7.42722033 216.377315,8.961521 216.376224,12.325813 L216.376224,12.930336 L221.699922,12.930336 L221.699922,16.320886 L216.376224,16.320886 L216.376224,33.1160547 L212.867566,33.1160547 L212.867566,16.3209097 L209.641181,16.3209097 L209.641181,12.9303597 L212.867566,12.9303597 L212.867566,12.3258367 C212.867566,9.60549275 213.626844,7.54661633 215.1454,6.1492075 C216.665053,4.7496105 218.849893,4.143995 221.699918,4.332361 L221.699922,7.722911 Z M227.450429,8.89317325 L227.450429,12.9303217 L232.813477,12.9303217 L232.813477,16.3209097 L227.450429,16.3209097 L227.450429,27.261409 C227.449378,28.2569203 227.644122,28.9632897 228.034661,29.380517 C228.518328,29.8348188 229.167956,30.0690241 229.829942,30.0277567 C230.637309,30.0409047 231.63182,30.0211954 232.813477,29.9686287 L232.813477,33.1160737 C229.747889,33.5190954 227.502904,33.2704962 226.078519,32.3702762 C224.653992,31.4678712 223.941729,29.7649155 223.941729,27.261409 L223.941729,10.920858 L227.450429,8.89317325 Z M91.2594374,14.6028632 C92.7402956,16.0825231 93.4807247,18.1261377 93.4807247,20.7337072 L93.4807247,33.118311 L88.125559,33.118311 L88.125559,21.3791942 C88.2020713,20.2388154 87.7955163,19.1188668 87.0054743,18.2936655 C86.1897314,17.5555474 85.1149194,17.1712418 84.0165921,17.2249725 C82.7850077,17.1664629 81.583833,17.6189463 80.6963658,18.4757045 C79.8663417,19.3091395 79.4513296,20.5594978 79.4513296,22.2267795 L79.4513296,33.1182968 L74.0962256,33.118311 L74.0962256,6.80119725 L79.4513296,3.70865275 L79.4513296,15.2081225 C80.7514538,13.3253238 82.8128031,12.3839245 85.6353774,12.3839245 C87.7352956,12.3170765 89.769849,13.1197972 91.2594374,14.6028632 Z M57.9747231,17.9508247 L72.3418258,17.950801 L72.3418258,20.1295548 C72.3425059,24.1635556 71.0141054,27.430737 68.3566241,29.931099 C65.6995668,32.4325788 62.2685619,33.6833187 58.0636095,33.6833187 C53.5809489,33.6836987 49.8658296,32.265078 46.9182514,29.4274565 C44.0393122,26.7493221 42.4324669,22.9731124 42.4980374,19.039615 C42.4262185,15.0960616 44.0155539,11.3042826 46.8769473,8.5925695 C49.7966287,5.74193617 53.4147011,4.3166195 57.7311645,4.3166195 C60.3185296,4.28660378 62.8724689,4.9034376 65.1614586,6.11120275 C66.7797174,6.95532831 68.2165029,8.10951052 69.3901666,9.5081605 L64.4811033,12.3430888 C63.8572276,11.7253404 63.141318,11.20829 62.3589526,10.810411 C60.9140495,10.0732594 59.3114896,9.69954678 57.6898841,9.721597 C55.1491409,9.63301647 52.6825764,10.5875162 50.862092,12.3637845 C49.0796407,14.1186631 48.1092058,16.5381824 48.1845091,19.0396198 C48.1111558,21.5253269 49.1001277,23.9244151 50.9033344,25.6350565 C52.7155145,27.3697058 55.1160488,28.2370305 58.1049373,28.2370305 C60.0388239,28.3124372 61.9518783,27.8143833 63.6039888,26.8053805 C65.0285035,25.8885172 66.0807918,24.4943923 66.572722,22.8722522 L57.9747231,22.8722522 L57.9747231,17.9508247 Z M131.093582,21.8437442 C132.148701,22.236235 133.074678,22.9134315 133.76893,23.800312 C134.524264,24.7794824 134.913438,25.9923724 134.86897,27.2286672 C134.955496,29.1283537 134.052929,30.9373778 132.483748,32.009395 C130.720709,33.175259 128.637772,33.7605268 126.526142,33.6833757 C122.355502,33.6806112 119.484366,32.14496 117.912735,29.076422 L122.496362,26.4294227 C123.118812,28.1184404 124.462072,28.9629492 126.526142,28.9629492 C128.436125,28.9637029 129.391116,28.3856089 129.391116,27.2286673 C129.391116,26.6915372 129.022934,26.254884 128.291077,25.917634 C127.426907,25.5369037 126.530918,25.2330948 125.613494,25.0097285 C124.543006,24.7356967 123.48952,24.3989754 122.458474,24.0013035 C121.416152,23.6041794 120.493865,22.9445063 119.780839,22.0861035 C119.029827,21.1589943 118.639118,19.991297 118.680795,18.7984433 C118.610856,16.9532988 119.458118,15.193184 120.943381,14.0981093 C122.575668,12.9161545 124.555179,12.3129348 126.568547,12.3839435 C128.172711,12.3637015 129.756518,12.7448743 131.176153,13.49285 C132.357412,14.1186004 133.367612,15.0243805 134.118492,16.1310522 L129.67447,18.6974297 C129.033494,17.6017417 127.835234,16.9556942 126.568518,17.022841 C125.963333,17.0000627 125.364655,17.1545198 124.84587,17.4672795 C124.415338,17.7162572 124.153238,18.1790595 124.160936,18.6767007 C124.160151,19.2146129 124.526814,19.6516335 125.260923,19.9877625 C126.123229,20.3682092 127.019815,20.6654797 127.938506,20.8755375 C129.00798,21.1370694 130.061434,21.4603456 131.093582,21.8437442 Z" id="Combined-Shape" fill="#0142DB"></path>
            <path d="M5.08193405,37.5930247 C2.31558116,37.5912272 0.0725971912,35.3485676 0.0677313442,32.579547 L0.0677313442,9.2525915 C0.901425275,11.3499682 2.47334483,13.1959275 4.80897764,14.8356987 C11.1684872,19.2999578 12.5031359,24.2443182 12.5031359,27.6059598 C12.5031359,34.4765878 7.75142122,37.5930247 5.0823991,37.5930247 L5.08193405,37.5930247 Z" id="Shape" fill="#0018A8"></path>
            <path d="M0.71434668,2.898393 C2.09907554,0.501244014 5.16089641,-0.321782974 7.55905623,1.05851375 L27.7413169,12.7219868 C25.5098413,12.395999 23.126778,12.8356543 20.5402455,14.0404395 C13.4980459,17.3211268 8.55292699,16.005904 5.64446534,14.3250785 C-0.299929369,10.8897645 -0.620382668,5.2124695 0.714128391,2.89879675 L0.71434668,2.898393 Z" id="Shape" fill="#1B98EA"></path>
            <path d="M32.9147758,16.4734323 C34.296398,18.8723762 33.4775619,21.9380636 31.0842643,23.3267892 L10.9020036,34.9902622 C12.2997853,33.218878 13.110929,30.9332635 13.361824,28.088707 C14.0445045,20.3437607 17.6550032,16.7146277 20.5634696,15.033807 C26.5078643,11.5984977 31.5800323,14.1593557 32.9145433,16.4730332 L32.9147758,16.4734323 Z" id="Shape" fill="#0142DB"></path>
        </g>
    </g>
</svg>