<svg xmlns="http://www.w3.org/2000/svg" width="100" height="100" viewBox="0 0 100 100">
    <defs>
        <linearGradient id="a" x1="11.591%" x2="11.591%" y1="0%" y2="100%">
            <stop offset="0%" stop-color="#0E56FE"/>
            <stop offset="100%" stop-color="#0018A8"/>
        </linearGradient>
        <linearGradient id="b" x1="50.002%" x2="50.002%" y1=".089%" y2="100%">
            <stop offset="0%" stop-color="#1B98EA" stop-opacity=".7"/>
            <stop offset="100%" stop-color="#1B98EA" stop-opacity="0"/>
        </linearGradient>
        <linearGradient id="d" x1="50%" x2="50%" y1="0%" y2="90.646%">
            <stop offset="0%" stop-color="#55BCFF"/>
            <stop offset="100%" stop-color="#1B98EA"/>
        </linearGradient>
        <linearGradient id="c" x1="50%" x2="51.814%" y1="0%" y2="84.437%">
            <stop offset="0%" stop-color="#8AD1FF"/>
            <stop offset="100%" stop-color="#1B98EA" stop-opacity="0"/>
        </linearGradient>
        <linearGradient id="f" x1="50%" x2="50%" y1="0%" y2="90.646%">
            <stop offset="0%" stop-color="#55BCFF"/>
            <stop offset="100%" stop-color="#1B98EA"/>
        </linearGradient>
        <linearGradient id="e" x1="50%" x2="52.129%" y1="7.396%" y2="79.343%">
            <stop offset="0%" stop-color="#8AD1FF"/>
            <stop offset="100%" stop-color="#1B98EA" stop-opacity="0"/>
        </linearGradient>
    </defs>
    <g fill="none" fill-rule="evenodd">
        <path stroke="#1B98EA" stroke-width="2" d="M67 58c13.807 0 25-11.193 25-25S80.807 8 67 8 42 19.193 42 33"/>
        <path stroke="#1B98EA" stroke-width="2" d="M67 42c13.807 0 25 11.193 25 25S80.807 92 67 92 42 80.807 42 67M33 58C19.193 58 8 46.807 8 33S19.193 8 33 8s25 11.193 25 25"/>
        <path stroke="#1B98EA" stroke-width="2" d="M33 42C19.193 42 8 53.193 8 67s11.193 25 25 25 25-11.193 25-25"/>
        <circle cx="50" cy="89" r="3" fill="#FFF" stroke="#0018A8" stroke-width="2"/>
        <circle cx="50" cy="11" r="3" fill="#FFF" stroke="#0018A8" stroke-width="2"/>
        <circle cx="89" cy="50" r="3" fill="#FFF" stroke="#0018A8" stroke-width="2"/>
        <circle cx="11" cy="50" r="3" fill="#FFF" stroke="#0018A8" stroke-width="2"/>
        <path fill="url(#a)" d="M50 87c-20.435 0-37-16.565-37-37s16.565-37 37-37 37 16.565 37 37-16.565 37-37 37zm0-19.733c9.536 0 17.267-7.73 17.267-17.267 0-9.536-7.73-17.267-17.267-17.267-9.536 0-17.267 7.73-17.267 17.267 0 9.536 7.73 17.267 17.267 17.267z"/>
        <path stroke="url(#b)" d="M50 86.5c20.158 0 36.5-16.342 36.5-36.5S70.158 13.5 50 13.5 13.5 29.842 13.5 50 29.842 86.5 50 86.5zm0-18.733c-9.812 0-17.767-7.955-17.767-17.767S40.188 32.233 50 32.233 67.767 40.188 67.767 50 59.812 67.767 50 67.767z"/>
        <path fill="url(#d)" stroke="url(#c)" d="M65.52 54.016c-.126.795.348 1.586 1.177 1.89l17.378 6.478c.488.174 1.03.152 1.5-.061.463-.21.812-.589.968-1.042a36.188 36.188 0 0 0 .313-22.524 1.79 1.79 0 0 0-.94-1.06 2.003 2.003 0 0 0-1.489-.098L66.85 43.643c-.89.311-1.385 1.19-1.161 2.05a16.18 16.18 0 0 1-.117 8.134l-.051.189zM34.48 54.016l-.052-.189a16.186 16.186 0 0 1-.115-8.14c.222-.853-.272-1.733-1.161-2.043l-17.574-6.043a2.007 2.007 0 0 0-1.494.095c-.457.22-.795.605-.94 1.059a36.19 36.19 0 0 0 .313 22.525c.156.454.505.832.969 1.043a2.004 2.004 0 0 0 1.492.063l17.388-6.481c.827-.304 1.3-1.094 1.173-1.889z"/>
        <path fill="url(#f)" stroke="url(#e)" d="M43.661 33.19c.324.882 1.2 1.364 2.055 1.136a16.108 16.108 0 0 1 8.149.108c.848.248 1.742-.223 2.076-1.107l6.447-17.408a2.02 2.02 0 0 0-.065-1.491 1.797 1.797 0 0 0-1.026-.966 35.953 35.953 0 0 0-22.542-.293 1.789 1.789 0 0 0-1.059.942 2.016 2.016 0 0 0-.097 1.492L43.66 33.19zM43.661 66.81l-6.06 17.58a2.02 2.02 0 0 0 .095 1.5c.22.457.604.796 1.057.94a35.951 35.951 0 0 0 22.54-.291c.45-.158.821-.506 1.03-.967a2.016 2.016 0 0 0 .068-1.482l-6.45-17.414c-.334-.887-1.228-1.358-2.083-1.108-2.666.732-5.46.768-8.15.103-.846-.225-1.723.257-2.047 1.14z"/>
    </g>
</svg>
