<svg xmlns="http://www.w3.org/2000/svg" width="100" height="100" viewBox="0 0 100 100">
    <defs>
        <linearGradient id="a" x1="50.002%" x2="50.002%" y1=".089%" y2="100%">
            <stop offset="0%" stop-color="#1B98EA" stop-opacity=".7"/>
            <stop offset="100%" stop-color="#1B98EA" stop-opacity="0"/>
        </linearGradient>
        <linearGradient id="b" x1="11.591%" x2="11.591%" y1="0%" y2="100%">
            <stop offset="0%" stop-color="#0E56FE"/>
            <stop offset="100%" stop-color="#0018A8"/>
        </linearGradient>
        <linearGradient id="d" x1="50%" x2="50%" y1="0%" y2="90.646%">
            <stop offset="0%" stop-color="#55BCFF"/>
            <stop offset="100%" stop-color="#1B98EA"/>
        </linearGradient>
        <linearGradient id="c" x1="38.927%" x2="61.073%" y1="67.756%" y2="73.373%">
            <stop offset="0%" stop-color="#8AD1FF"/>
            <stop offset="100%" stop-color="#1B98EA" stop-opacity="0"/>
        </linearGradient>
        <linearGradient id="f" x1="50%" x2="50%" y1="0%" y2="90.646%">
            <stop offset="0%" stop-color="#55BCFF"/>
            <stop offset="100%" stop-color="#1B98EA"/>
        </linearGradient>
        <linearGradient id="e" x1="10.404%" x2="62.423%" y1="83.184%" y2="39.04%">
            <stop offset="0%" stop-color="#8AD1FF"/>
            <stop offset="100%" stop-color="#1B98EA" stop-opacity="0"/>
        </linearGradient>
        <linearGradient id="h" x1="50%" x2="50%" y1="0%" y2="90.646%">
            <stop offset="0%" stop-color="#55BCFF"/>
            <stop offset="100%" stop-color="#1B98EA"/>
        </linearGradient>
        <linearGradient id="g" x1="100.319%" x2="38.647%" y1="46.156%" y2="20.295%">
            <stop offset="0%" stop-color="#8AD1FF"/>
            <stop offset="100%" stop-color="#1B98EA" stop-opacity="0"/>
        </linearGradient>
        <linearGradient id="j" x1="50%" x2="50%" y1="0%" y2="90.646%">
            <stop offset="0%" stop-color="#55BCFF"/>
            <stop offset="100%" stop-color="#1B98EA"/>
        </linearGradient>
        <linearGradient id="i" x1="50%" x2="50.709%" y1="0%" y2="84.437%">
            <stop offset="0%" stop-color="#8AD1FF"/>
            <stop offset="100%" stop-color="#1B98EA" stop-opacity="0"/>
        </linearGradient>
    </defs>
    <g fill="none" fill-rule="evenodd">
        <circle cx="50" cy="50" r="39.5" stroke="url(#a)"/>
        <g transform="translate(15 15)">
            <circle cx="35" cy="35" r="35" fill="url(#b)"/>
            <path fill="url(#d)" stroke="url(#c)" d="M69.498 34.444c-.059-6.379-1.819-12.49-5.04-17.8-.13.229-.257.47-.378.718a8.946 8.946 0 0 0-.626 1.628c-.144.551-.183 1.028-.109 1.406.11.556.394.936.967 1.406.072.06.423.336.518.415.661.549.952 1.038.836 1.757-.112.69-.456.94-1.154 1.079-1.194.236-1.772.614-2.697 2.318-1.838 3.388-.912 7.972 1.475 8.288.542.071 1.163.062 1.847-.02.871-.106 1.81-.326 2.766-.625a21.291 21.291 0 0 0 1.595-.57z"/>
            <path fill="url(#f)" stroke="url(#e)" d="M44.422 1.77a2.095 2.095 0 0 0-.127.21c-.534 1.001-.534 2.641.43 5.09.575 1.458 1.16 2.062 1.74 2.084.538.021 1.158-.39 2.111-1.324l.497-.492c.195-.193.342-.333.483-.459.635-.565 1.6-.86 2.814-.96.415-.034.844-.044 1.274-.034a34.577 34.577 0 0 0-9.222-4.115z"/>
            <path fill="url(#h)" stroke="url(#g)" d="M9.095 12.131a50.761 50.761 0 0 1 1.264 1.742c.129.187.252.37.369.548.37.565.667 1.063.874 1.48.16.324.278.697.417 1.269.979 4.024 1.435 5.21 3.665 7.901.292.352.714.683 1.389 1.111.159.102 1.256.77 1.59.987 1.387.899 2.315 1.757 2.976 2.926.678 1.2 1.285 1.917 1.927 2.346.446.298.855.45 1.68.66l.222.056c.331.084.656.068 1.463-.042l.294-.04c1.657-.209 2.635.09 3.344 1.483.5.98 1.076 1.727 1.59 2.12.152.116.283.189.377.22.046-.632-1.436-3.01-2.624-3.565-.459-.214-.829-.287-1.714-.384-1.524-.167-2.22-.432-2.94-1.426-1.252-1.732.315-3.789 2.296-4.567 1.348-.529 3.898-.22 4.546.682.544.757.922 1.167 1.218 1.288a6.288 6.288 0 0 0-.085-.266c-.002-.007-.16-.463-.209-.614-.295-.901-.433-1.638-.384-2.432.1-1.6 1.881-3.67 5.682-7.157a183.64 183.64 0 0 1 1.54-1.396l.606-.547c1.892-1.707 1.668-2.605-.548-3.921-.44-.261-.95-.533-1.658-.89-.232-.116-1.56-.772-1.956-.973-1.083-.547-1.68-.593-1.94-.355-.221.202-.327.676-.332 1.468-.002.162 0 .303.007.583.024 1.115.004 1.405-.265 1.73-.878 1.064-3.968.784-6.284-.517-2.537-1.424-2.405-3.874.065-5.782 1.027-.794 1.662-1.484 1.79-1.907.063-.21-.08-.327-.885-.372-.698-.039-1.654.132-3.85.632l-.055.012c-3.947.9-4.902 1.013-5.32.03-.338-.794.165-1.446 1.24-2.045.923-.515.622-.401 5.08-2.01 3.254-1.175 8.23.616 9.75 2.785.804 1.148 1.294 1.79 1.814 2.315.584.59.955.751 1.105.63.07-.058.383-.298.463-.363.512-.413.702-.705.64-1.016-.105-.534-.88-1.267-2.536-2.174-2.541-1.39-3.38-2.742-2.936-3.858C24.275.802 15.4 5.039 9.095 12.13zm24.267 16.956c-.003 0-.005-.004-.006-.01v-.001z"/>
            <path fill="url(#j)" stroke="url(#i)" d="M39.692 65.717c-1.3-1.03-1.287-2.415-.421-5.335.52-1.753 1.404-2.824 3.362-4.52l.33-.285c.361-.313.594-.519.823-.733 1.396-1.305 4.555-5.865 6.79-9.635 1.577-2.658.873-4.082-1.928-4.698-1.733-.381-2.626-.774-3.534-1.511-.304-.247-1.47-1.318-1.691-1.513-.52-.455-1.249-.843-2.133-1.161a14.477 14.477 0 0 0-2.216-.588 12.94 12.94 0 0 0-1-.154l-.067-.01c-1.352-.325-2.419.47-3.102 2.149-.622 1.531-.783 3.567-.424 4.959.286 1.111.899 1.945 1.94 2.844.126.11 1.28 1.042 1.563 1.313.339.323.574.624.721.951.565 1.258.1 5.164-.715 9.288-.047.235-.111.493-.205.83-.045.163-.22.778-.258.91-.448 1.601-.608 2.676-.452 3.768.107.753.374 1.441.83 2.076.932 1.295 1.418 1.43 1.787 1.055z"/>
        </g>
        <circle cx="50" cy="50" r="34.5" stroke="url(#a)"/>
    </g>
</svg>
