<svg xmlns="http://www.w3.org/2000/svg" width="100" height="100" viewBox="0 0 100 100">
    <defs>
        <linearGradient id="b" x1="50%" x2="50%" y1="0%" y2="90.646%">
            <stop offset="0%" stop-color="#55BCFF"/>
            <stop offset="100%" stop-color="#1B98EA"/>
        </linearGradient>
        <linearGradient id="a" x1="50%" x2="52.129%" y1="0%" y2="84.437%">
            <stop offset="0%" stop-color="#8AD1FF"/>
            <stop offset="100%" stop-color="#1B98EA" stop-opacity="0"/>
        </linearGradient>
        <linearGradient id="c" x1="50.002%" x2="50.002%" y1="50%" y2="100%">
            <stop offset="0%" stop-color="#F7FAFD" stop-opacity=".5"/>
            <stop offset="100%" stop-color="#1B98EA" stop-opacity="0"/>
        </linearGradient>
        <linearGradient id="d" x1="103.735%" x2="44.883%" y1="34.562%" y2="32.138%">
            <stop offset="0%" stop-color="#1B98EA"/>
            <stop offset="100%" stop-color="#1B98EA" stop-opacity="0"/>
        </linearGradient>
        <linearGradient id="e" x1="114.68%" x2="65.976%" y1="-13.435%" y2="40.457%">
            <stop offset="0%" stop-color="#0142DB"/>
            <stop offset="100%" stop-color="#1B98EA" stop-opacity=".052"/>
        </linearGradient>
    </defs>
    <g fill="none" fill-rule="evenodd">
        <path fill="url(#b)" stroke="url(#a)" d="M84.976 24.536a3.5 3.5 0 0 1 .768-3.79l.435-.435a2.38 2.38 0 0 0 0-3.366l-2.715-2.715a2.38 2.38 0 0 0-3.366 0l-.306.306a3.5 3.5 0 0 1-3.84.748l-1.517-.644a3.5 3.5 0 0 1-2.135-3.222v-.538a2.38 2.38 0 0 0-2.38-2.38h-3.84a2.38 2.38 0 0 0-2.38 2.38v.521a3.5 3.5 0 0 1-2.16 3.233l-1.25.518a3.5 3.5 0 0 1-3.815-.758l-.164-.164a2.38 2.38 0 0 0-3.366 0l-2.715 2.715a2.38 2.38 0 0 0 0 3.366l.164.164a3.5 3.5 0 0 1 .758 3.815l-.518 1.25a3.5 3.5 0 0 1-3.233 2.16h-.521a2.38 2.38 0 0 0-2.38 2.38v3.84a2.38 2.38 0 0 0 2.38 2.38h.538a3.5 3.5 0 0 1 3.222 2.135l.644 1.517a3.5 3.5 0 0 1-.748 3.84l-.306.306a2.38 2.38 0 0 0 0 3.366l2.715 2.715c.93.93 2.437.93 3.366 0l.435-.435a3.5 3.5 0 0 1 3.79-.768l.979.396a3.5 3.5 0 0 1 2.185 3.244v.504a2.38 2.38 0 0 0 2.38 2.38h3.84a2.38 2.38 0 0 0 2.38-2.38v-.521a3.5 3.5 0 0 1 2.16-3.233l1.25-.518a3.5 3.5 0 0 1 3.815.758l.573.573c.93.93 2.437.93 3.366 0l2.715-2.715a2.38 2.38 0 0 0 0-3.366l-.573-.573a3.5 3.5 0 0 1-.758-3.815l.518-1.25a3.5 3.5 0 0 1 3.233-2.16h.521a2.38 2.38 0 0 0 2.38-2.38v-3.84a2.38 2.38 0 0 0-2.38-2.38h-.504a3.5 3.5 0 0 1-3.244-2.185l-.396-.979zM12.98 68.19a3.592 3.592 0 0 1-2.304 3.232l-.591.227a2.468 2.468 0 0 0-1.42 3.189l1.418 3.695a2.468 2.468 0 0 0 3.189 1.42l.416-.16a3.592 3.592 0 0 1 3.913.902l1.159 1.242a3.592 3.592 0 0 1 .656 3.912l-.225.506a2.468 2.468 0 0 0 1.25 3.26l3.616 1.609a2.468 2.468 0 0 0 3.259-1.251l.218-.49a3.592 3.592 0 0 1 3.375-2.13l1.394.036a3.592 3.592 0 0 1 3.26 2.303l.086.223a2.468 2.468 0 0 0 3.189 1.42l3.695-1.418a2.468 2.468 0 0 0 1.42-3.189l-.086-.223a3.592 3.592 0 0 1 .881-3.894l1.012-.96a3.592 3.592 0 0 1 3.933-.675l.49.219a2.468 2.468 0 0 0 3.26-1.251l1.61-3.616A2.468 2.468 0 0 0 53.8 73.07l-.506-.225a3.592 3.592 0 0 1-2.13-3.346l.03-1.699a3.592 3.592 0 0 1 2.304-3.288l.416-.16a2.468 2.468 0 0 0 1.42-3.189l-1.418-3.695a2.468 2.468 0 0 0-3.189-1.42l-.592.228a3.592 3.592 0 0 1-3.874-.862l-.755-.784a3.592 3.592 0 0 1-.695-3.953l.211-.474a2.468 2.468 0 0 0-1.25-3.26l-3.616-1.609a2.468 2.468 0 0 0-3.26 1.251l-.218.49a3.592 3.592 0 0 1-3.374 2.13l-1.394-.036a3.592 3.592 0 0 1-3.26-2.303l-.3-.78a2.468 2.468 0 0 0-3.189-1.42l-3.695 1.418a2.468 2.468 0 0 0-1.42 3.189l.3.78a3.592 3.592 0 0 1-.882 3.894l-1.012.96a3.592 3.592 0 0 1-3.932.675l-.49-.219a2.468 2.468 0 0 0-3.26 1.251l-1.61 3.616a2.468 2.468 0 0 0 1.251 3.259l.475.21a3.592 3.592 0 0 1 2.129 3.403l-.037 1.088z"/>
        <circle cx="68" cy="32" r="8" stroke="url(#c)" stroke-width="2"/>
        <circle cx="32" cy="68" r="8" stroke="url(#c)" stroke-width="2"/>
        <path stroke="url(#d)" stroke-dasharray="9" stroke-linecap="round" stroke-linejoin="bevel" stroke-width="2" d="M68 63c17.12 0 31-13.88 31-31C99 14.88 85.12 1 68 1 50.88 1 37 14.88 37 32" transform="matrix(1 0 0 -1 0 64)"/>
        <path stroke="url(#e)" stroke-dasharray="9" stroke-linecap="round" stroke-linejoin="bevel" stroke-width="2" d="M32 99c17.12 0 31-13.88 31-31 0-17.12-13.88-31-31-31C14.88 37 1 50.88 1 68" transform="rotate(-180 32 68)"/>
        <path fill="url(#b)" stroke="url(#a)" d="M28.837 16.422a2.78 2.78 0 0 1 1.557-2.646l.038-.019a1.218 1.218 0 0 0 .56-1.628l-1.003-2.058a1.218 1.218 0 0 0-1.628-.56 2.672 2.672 0 0 1-2.958-.415l-.3-.27a2.773 2.773 0 0 1-.768-2.966 1.218 1.218 0 0 0-.755-1.548l-2.166-.745a1.218 1.218 0 0 0-1.547.755 2.754 2.754 0 0 1-2.435 1.852l-.358.022a2.496 2.496 0 0 1-2.396-1.397 1.218 1.218 0 0 0-1.628-.56L10.99 5.241a1.218 1.218 0 0 0-.56 1.628 2.496 2.496 0 0 1-.375 2.749l-.237.268a2.754 2.754 0 0 1-2.959.778 1.218 1.218 0 0 0-1.548.755l-.745 2.166a1.218 1.218 0 0 0 .755 1.547 2.773 2.773 0 0 1 1.863 2.43l.028.404a2.672 2.672 0 0 1-1.494 2.586 1.218 1.218 0 0 0-.56 1.628l1.004 2.059a1.218 1.218 0 0 0 1.628.56l.038-.018a2.78 2.78 0 0 1 3.044.402l.003.003c.84.732 1.152 1.9.79 2.953a1.218 1.218 0 0 0 .754 1.548l2.166.745a1.218 1.218 0 0 0 1.547-.755 2.754 2.754 0 0 1 2.435-1.852l.093-.006a2.892 2.892 0 0 1 2.777 1.62l.036.072a1.218 1.218 0 0 0 1.628.56l2.058-1.004a1.218 1.218 0 0 0 .56-1.628l-.035-.072a2.892 2.892 0 0 1 .434-3.185l.062-.07a2.754 2.754 0 0 1 2.959-.778 1.218 1.218 0 0 0 1.548-.755l.745-2.166a1.218 1.218 0 0 0-.755-1.547 2.735 2.735 0 0 1-1.84-2.44v-.005z"/>
        <circle cx="18" cy="17" r="4" stroke="url(#c)" stroke-width="2"/>
    </g>
</svg>
