<svg xmlns="http://www.w3.org/2000/svg" width="100" height="100" viewBox="0 0 100 100">
    <defs>
        <linearGradient id="a" x1="11.591%" x2="11.591%" y1="0%" y2="100%">
            <stop offset="0%" stop-color="#0E56FE"/>
            <stop offset="100%" stop-color="#0018A8"/>
        </linearGradient>
        <linearGradient id="b" x1="50.002%" x2="50.002%" y1=".089%" y2="100%">
            <stop offset="0%" stop-color="#1B98EA" stop-opacity=".7"/>
            <stop offset="100%" stop-color="#1B98EA" stop-opacity="0"/>
        </linearGradient>
        <linearGradient id="d" x1="50%" x2="50%" y1="0%" y2="90.646%">
            <stop offset="0%" stop-color="#55BCFF"/>
            <stop offset="100%" stop-color="#1B98EA"/>
        </linearGradient>
        <linearGradient id="c" x1="50%" x2="51.334%" y1="0%" y2="84.437%">
            <stop offset="0%" stop-color="#8AD1FF"/>
            <stop offset="100%" stop-color="#1B98EA" stop-opacity="0"/>
        </linearGradient>
        <linearGradient id="e" x1="11.591%" x2="11.591%" y1="0%" y2="100%">
            <stop offset="0%" stop-color="#0E56FE"/>
            <stop offset="100%" stop-color="#0018A8"/>
        </linearGradient>
        <linearGradient id="f" x1="50.002%" x2="50.002%" y1=".089%" y2="100%">
            <stop offset="0%" stop-color="#1B98EA" stop-opacity=".7"/>
            <stop offset="100%" stop-color="#1B98EA" stop-opacity="0"/>
        </linearGradient>
        <linearGradient id="g" x1="50.002%" x2="50.002%" y1="105.997%" y2="14.196%">
            <stop offset="0%" stop-color="#F7FAFD" stop-opacity=".5"/>
            <stop offset="100%" stop-color="#1B98EA" stop-opacity="0"/>
        </linearGradient>
    </defs>
    <g fill="none" fill-rule="evenodd">
        <path fill="url(#a)" d="M8.481 36.731h50.907a2 2 0 0 1 1.422.594L71 47.634a2 2 0 0 0 1.422.594h4.899a2 2 0 0 0 1.469-.643L88.858 36.68a2 2 0 0 1 2.686-.23l4.154 3.183a2 2 0 0 1 .783 1.587V44.7a2 2 0 0 1-1.098 1.785L91.194 48.6a2 2 0 0 0-1.098 1.785v19.83a2 2 0 0 1-.347 1.124l-1.85 2.72a2 2 0 0 0-.345 1.124v4.764a2 2 0 0 0 .675 1.498l1.462 1.292a2 2 0 0 1 .3 2.666l-2.108 2.933a2 2 0 0 1-3.141.136l-5.948-6.927a2 2 0 0 0-1.518-.697H62.212c-1.098 0-1.989.89-1.989 1.989v1.13a2 2 0 0 0 .622 1.45l3.485 3.312a2 2 0 0 1-.218 3.08l-1.634 1.162a2 2 0 0 1-1.16.37h-7.565a2 2 0 0 1-1.487-.663L42.233 81.511a2 2 0 0 0-1.488-.664H26.318a2 2 0 0 1-1.38-.551L7.103 63.31a2 2 0 0 1-.62-1.448V38.731a2 2 0 0 1 2-2z"/>
        <path stroke="url(#b)" d="M8.481 37.231a1.5 1.5 0 0 0-1.5 1.5v23.132c0 .41.169.803.466 1.086l17.836 16.985a1.5 1.5 0 0 0 1.035.413h14.427a2.5 2.5 0 0 1 1.86.83l10.033 11.166a1.5 1.5 0 0 0 1.115.498h7.566a1.5 1.5 0 0 0 .87-.278l1.633-1.163a1.5 1.5 0 0 0 .164-2.31L60.5 85.779a2.5 2.5 0 0 1-.778-1.812v-1.13a2.489 2.489 0 0 1 2.489-2.489h15.064a2.5 2.5 0 0 1 1.897.871l5.948 6.927a1.5 1.5 0 0 0 2.356-.102l2.107-2.933a1.5 1.5 0 0 0-.224-2l-1.462-1.291a2.5 2.5 0 0 1-.844-1.873v-4.764c0-.501.15-.991.432-1.406l1.85-2.72a1.5 1.5 0 0 0 .26-.843V50.384a2.5 2.5 0 0 1 1.373-2.231l4.188-2.115a1.5 1.5 0 0 0 .824-1.34v-3.477a1.5 1.5 0 0 0-.587-1.19l-4.154-3.184a1.5 1.5 0 0 0-2.015.173L79.156 47.924a2.5 2.5 0 0 1-1.836.804H72.42a2.5 2.5 0 0 1-1.778-.743L60.455 37.677a1.5 1.5 0 0 0-1.067-.446H8.48z"/>
        <path fill="url(#d)" stroke="url(#c)" d="M37 3.5c-10.202 0-18.5 8.154-18.5 18.17 0 6.236 3.026 12.965 9.018 19.998a66.274 66.274 0 0 0 6.07 6.224c1.266 1.14 2.273 1.967 2.883 2.43a.871.871 0 0 0 1.057 0c.618-.469 1.618-1.29 2.883-2.43a66.27 66.27 0 0 0 6.07-6.224C52.475 34.635 55.5 27.906 55.5 21.67 55.5 11.654 47.202 3.5 37 3.5z"/>
        <path fill="url(#e)" d="M44 22a7 7 0 1 1-14 0 7 7 0 0 1 14 0z"/>
        <path stroke="url(#f)" d="M43.5 22a6.5 6.5 0 1 0-13 0 6.5 6.5 0 0 0 13 0z"/>
        <circle cx="37" cy="50" r="8" stroke="url(#g)"/>
        <circle cx="37" cy="50" r="15" stroke="url(#g)"/>
        <circle cx="37" cy="50" r="22" stroke="url(#g)"/>
    </g>
</svg>
