<?xml version="1.0" encoding="utf-8"?>
<!-- Generator: Adobe Illustrator 16.0.0, SVG Export Plug-In . SVG Version: 6.00 Build 0)  -->
<!DOCTYPE svg PUBLIC "-//W3C//DTD SVG 1.1//EN" "http://www.w3.org/Graphics/SVG/1.1/DTD/svg11.dtd">
<svg version="1.1" id="Layer_1" xmlns="http://www.w3.org/2000/svg" xmlns:xlink="http://www.w3.org/1999/xlink" x="0px" y="0px"
	 width="20px" height="20px" viewBox="0 0 20 20" enable-background="new 0 0 20 20" xml:space="preserve">
<path fill="#333B41" d="M18,8.728c0,0.616-0.309,1.36-0.73,1.78l-6.748,7.012c-0.638,0.641-1.679,0.641-2.314,0.002l-5.726-5.727
	c-0.64-0.641-0.64-1.679,0.001-2.319c0.003-0.003,0.007-0.007,0.011-0.011l6.986-6.72C9.913,2.31,10.657,2,11.271,2h5.092
	C17.266,2,18,2.735,18,3.638V8.728z M9.358,15.843l6.488-6.738c0.08-0.112,0.133-0.241,0.154-0.377V4.001h-4.729
	c-0.143,0.023-0.277,0.083-0.392,0.172l-6.724,6.468L9.358,15.843L9.358,15.843z M15,6.001c0,0.552-0.447,1-1,1s-1-0.448-1-1
	s0.447-1,1-1S15,5.449,15,6.001z"/>
</svg>
