<?xml version="1.0" encoding="utf-8"?>
<!-- Generator: Adobe Illustrator 16.0.0, SVG Export Plug-In . SVG Version: 6.00 Build 0)  -->
<!DOCTYPE svg PUBLIC "-//W3C//DTD SVG 1.1//EN" "http://www.w3.org/Graphics/SVG/1.1/DTD/svg11.dtd">
<svg version="1.1" id="Layer_1" xmlns="http://www.w3.org/2000/svg" xmlns:xlink="http://www.w3.org/1999/xlink" x="0px" y="0px"
	 width="20.8px" height="24.7px" viewBox="0 0 20.8 24.7" enable-background="new 0 0 20.8 24.7" xml:space="preserve">
<title>watermark</title>
<desc>Created with Sketch.</desc>
<g id="Mask">
</g>
<g>
	<path fill="#F2F4FD" d="M0.531,0.015V0.37l14.388,8.373c-0.183-0.012-0.369-0.02-0.557-0.02c-1.584,0-3.253,0.417-5.036,1.252
		C6.789,11.167,4.437,11.72,2.28,11.72c-0.218,0-0.435-0.004-0.649-0.015c-0.374-0.023-0.741-0.058-1.1-0.111v0.309
		c0.351,0.05,0.714,0.084,1.084,0.103c0.221,0.012,0.442,0.019,0.664,0.019c1.752,0,3.627-0.355,5.616-1.111
		c-1.126,0.81-2.138,1.855-2.981,3.169c-1.229,1.909-2.042,4.298-2.363,7.216c-0.027-1.684-0.42-3.398-1.271-5.094
		c-0.222-0.438-0.47-0.87-0.749-1.298v0.573c0.172,0.286,0.332,0.572,0.477,0.862c0.859,1.706,1.241,3.433,1.241,5.127
		c0,1.177-0.16,2.257-0.458,3.229H2.28c0.26-0.87,0.435-1.824,0.527-2.863c0.271-3.1,1.092-5.611,2.363-7.589
		c1.034-1.607,2.325-2.806,3.779-3.653c1.672-0.974,3.348-1.432,4.929-1.432c0.61,0,1.205,0.068,1.782,0.202
		c1.71,0.397,3.134,1.367,3.741,2.428l0,0c1.152,2.017,0.47,4.589-1.523,5.757L5.601,24.7h0.607l11.823-6.887
		c2.139-1.252,2.871-4.012,1.639-6.173l0,0l0,0c-0.58-1.012-1.821-1.932-3.348-2.413l0.049,0.008L0.531,0.015"/>
</g>
</svg>
